<svg width="114" height="36" viewBox="0 0 114 36" fill="none" xmlns="http://www.w3.org/2000/svg">
<path d="M21.6534 16.0398C21.5436 15.6951 21.3958 15.3864 21.2102 15.1136C21.0284 14.8371 20.8106 14.6023 20.5568 14.4091C20.303 14.2121 20.0133 14.0625 19.6875 13.9602C19.3655 13.858 19.0114 13.8068 18.625 13.8068C17.9697 13.8068 17.3788 13.9754 16.8523 14.3125C16.3258 14.6496 15.9091 15.1439 15.6023 15.7955C15.2992 16.4432 15.1477 17.2367 15.1477 18.1761C15.1477 19.1193 15.3011 19.9167 15.608 20.5682C15.9148 21.2197 16.3352 21.714 16.8693 22.0511C17.4034 22.3883 18.0114 22.5568 18.6932 22.5568C19.3258 22.5568 19.8769 22.428 20.3466 22.1705C20.8201 21.9129 21.1856 21.5492 21.4432 21.0795C21.7045 20.6061 21.8352 20.0492 21.8352 19.4091L22.2898 19.4943H18.9602V18.0455H23.5341V19.3693C23.5341 20.3466 23.3258 21.1951 22.9091 21.9148C22.4962 22.6307 21.9242 23.1837 21.1932 23.5739C20.4659 23.964 19.6326 24.1591 18.6932 24.1591C17.6402 24.1591 16.7159 23.9167 15.9205 23.4318C15.1288 22.947 14.5114 22.2595 14.0682 21.3693C13.625 20.4754 13.4034 19.4148 13.4034 18.1875C13.4034 17.2595 13.5322 16.4261 13.7898 15.6875C14.0473 14.9489 14.4091 14.322 14.875 13.8068C15.3447 13.2879 15.8958 12.892 16.5284 12.6193C17.1648 12.3428 17.8598 12.2045 18.6136 12.2045C19.2424 12.2045 19.8277 12.2973 20.3693 12.483C20.9148 12.6686 21.3996 12.9318 21.8239 13.2727C22.2519 13.6136 22.6061 14.0189 22.8864 14.4886C23.1667 14.9545 23.3561 15.4716 23.4545 16.0398H21.6534ZM26.1733 24V15.2727H27.8722V24H26.1733ZM27.0312 13.9261C26.7358 13.9261 26.482 13.8277 26.2699 13.6307C26.0616 13.4299 25.9574 13.1913 25.9574 12.9148C25.9574 12.6345 26.0616 12.3958 26.2699 12.1989C26.482 11.9981 26.7358 11.8977 27.0312 11.8977C27.3267 11.8977 27.5786 11.9981 27.7869 12.1989C27.9991 12.3958 28.1051 12.6345 28.1051 12.9148C28.1051 13.1913 27.9991 13.4299 27.7869 13.6307C27.5786 13.8277 27.3267 13.9261 27.0312 13.9261ZM34.2315 15.2727V16.6364H29.4645V15.2727H34.2315ZM30.7429 13.1818H32.4418V21.4375C32.4418 21.767 32.491 22.0152 32.5895 22.1818C32.688 22.3447 32.8149 22.4564 32.9702 22.517C33.1293 22.5739 33.3016 22.6023 33.4872 22.6023C33.6236 22.6023 33.7429 22.5928 33.8452 22.5739C33.9474 22.5549 34.027 22.5398 34.0838 22.5284L34.3906 23.9318C34.2921 23.9697 34.152 24.0076 33.9702 24.0455C33.7884 24.0871 33.5611 24.1098 33.2884 24.1136C32.8414 24.1212 32.4247 24.0417 32.0384 23.875C31.652 23.7083 31.3395 23.4508 31.1009 23.1023C30.8622 22.7538 30.7429 22.3163 30.7429 21.7898V13.1818ZM36.4347 24V12.3636H38.1903V17.4205H43.9915V12.3636H45.7528V24H43.9915V18.9261H38.1903V24H36.4347ZM53.7017 20.3807V15.2727H55.4062V24H53.7358V22.4886H53.6449C53.4441 22.9545 53.1222 23.3428 52.679 23.6534C52.2396 23.9602 51.6922 24.1136 51.0369 24.1136C50.4763 24.1136 49.9801 23.9905 49.5483 23.7443C49.1203 23.4943 48.7831 23.125 48.5369 22.6364C48.2945 22.1477 48.1733 21.5436 48.1733 20.8239V15.2727H49.8722V20.6193C49.8722 21.214 50.0369 21.6875 50.3665 22.0398C50.696 22.392 51.1241 22.5682 51.6506 22.5682C51.9688 22.5682 52.285 22.4886 52.5994 22.3295C52.9176 22.1705 53.1809 21.9299 53.3892 21.608C53.6013 21.286 53.7055 20.8769 53.7017 20.3807ZM57.8253 24V12.3636H59.5241V16.6875H59.6264C59.7249 16.5057 59.867 16.2955 60.0526 16.0568C60.2382 15.8182 60.4957 15.6098 60.8253 15.4318C61.1548 15.25 61.5904 15.1591 62.1321 15.1591C62.8366 15.1591 63.4654 15.3371 64.0185 15.6932C64.5715 16.0492 65.0052 16.5625 65.3196 17.233C65.6378 17.9034 65.7969 18.7102 65.7969 19.6534C65.7969 20.5966 65.6397 21.4053 65.3253 22.0795C65.0109 22.75 64.5791 23.267 64.0298 23.6307C63.4806 23.9905 62.8537 24.1705 62.1491 24.1705C61.6188 24.1705 61.1851 24.0814 60.848 23.9034C60.5147 23.7254 60.2533 23.517 60.0639 23.2784C59.8745 23.0398 59.7287 22.8277 59.6264 22.642H59.4844V24H57.8253ZM59.4901 19.6364C59.4901 20.25 59.5791 20.7879 59.7571 21.25C59.9351 21.7121 60.1927 22.0739 60.5298 22.3352C60.867 22.5928 61.2798 22.7216 61.7685 22.7216C62.276 22.7216 62.7003 22.5871 63.0412 22.3182C63.3821 22.0455 63.6397 21.6761 63.8139 21.2102C63.992 20.7443 64.081 20.2197 64.081 19.6364C64.081 19.0606 63.9938 18.5436 63.8196 18.0852C63.6491 17.6269 63.3916 17.2652 63.0469 17C62.706 16.7348 62.2798 16.6023 61.7685 16.6023C61.276 16.6023 60.8594 16.7292 60.5185 16.983C60.1813 17.2367 59.9257 17.5909 59.7514 18.0455C59.5772 18.5 59.4901 19.0303 59.4901 19.6364Z" fill="#96AA68"/>
<g clip-path="url(#clip0_240_40)">
<path fill-rule="evenodd" clip-rule="evenodd" d="M88.4613 5C81.294 5 75.5 10.9583 75.5 18.3296C75.5 24.2219 79.2124 29.2095 84.3626 30.9748C85.0064 31.1075 85.2423 30.688 85.2423 30.3351C85.2423 30.0261 85.2211 28.9669 85.2211 27.8632C81.6156 28.6578 80.8648 26.2742 80.8648 26.2742C80.2853 24.7294 79.4268 24.3324 79.4268 24.3324C78.2467 23.5158 79.5128 23.5158 79.5128 23.5158C80.8218 23.6041 81.5087 24.884 81.5087 24.884C82.6672 26.9142 84.5342 26.3406 85.2853 25.9874C85.3925 25.1267 85.736 24.5309 86.1008 24.1999C83.2252 23.8909 80.1996 22.7434 80.1996 17.6233C80.1996 16.1667 80.7143 14.9751 81.5299 14.0483C81.4012 13.7173 80.9504 12.3488 81.6588 10.5171C81.6588 10.5171 82.7532 10.164 85.2208 11.8854C86.2773 11.5936 87.3668 11.4452 88.4613 11.4439C89.5557 11.4439 90.6713 11.5986 91.7015 11.8854C94.1693 10.164 95.2637 10.5171 95.2637 10.5171C95.9721 12.3488 95.5211 13.7173 95.3924 14.0483C96.2294 14.9751 96.7229 16.1667 96.7229 17.6233C96.7229 22.7434 93.6973 23.8687 90.8002 24.1999C91.2724 24.6192 91.68 25.4135 91.68 26.6715C91.68 28.459 91.6587 29.8936 91.6587 30.3348C91.6587 30.688 91.8949 31.1075 92.5385 30.9751C97.6886 29.2092 101.401 24.2219 101.401 18.3296C101.422 10.9583 95.607 5 88.4613 5Z" fill="#96AA68"/>
</g>
<rect x="1.5" y="1" width="111" height="34" rx="6" stroke="#96AA68" stroke-width="2"/>
<defs>
<clipPath id="clip0_240_40">
<rect width="26" height="26" fill="white" transform="translate(75.5 5)"/>
</clipPath>
</defs>
</svg>
